<svg width="52" height="52" viewBox="0 0 52 52" fill="none" xmlns="http://www.w3.org/2000/svg">
<path d="M45.213 28.535C45.3105 27.7225 45.3755 26.8775 45.3755 26C45.3755 25.1225 45.3105 24.2775 45.1805 23.465L50.673 19.175C51.1605 18.785 51.2905 18.07 50.998 17.5175L45.798 8.515C45.473 7.93 44.7905 7.735 44.2055 7.93L37.738 10.53C36.373 9.49 34.943 8.645 33.3505 7.995L32.3755 1.105C32.278 0.455 31.7255 0 31.0755 0H20.6755C20.0255 0 19.5055 0.455 19.408 1.105L18.433 7.995C16.8405 8.645 15.378 9.5225 14.0455 10.53L7.57801 7.93C6.99301 7.7025 6.31051 7.93 5.98551 8.515L0.785512 17.5175C0.460513 18.1025 0.590513 18.785 1.11051 19.175L6.60301 23.465C6.47301 24.2775 6.37551 25.155 6.37551 26C6.37551 26.845 6.44051 27.7225 6.57051 28.535L1.07801 32.825C0.590512 33.215 0.460513 33.93 0.753013 34.4825L5.95301 43.485C6.27801 44.07 6.96051 44.265 7.54551 44.07L14.013 41.47C15.378 42.51 16.808 43.355 18.4005 44.005L19.3755 50.895C19.5055 51.545 20.0255 52 20.6755 52H31.0755C31.7255 52 32.278 51.545 32.343 50.895L33.318 44.005C34.9105 43.355 36.373 42.4775 37.7055 41.47L44.173 44.07C44.758 44.2975 45.4405 44.07 45.7655 43.485L50.9655 34.4825C51.2905 33.8975 51.1605 33.215 50.6405 32.825L45.213 28.535ZM25.8755 35.75C20.513 35.75 16.1255 31.3625 16.1255 26C16.1255 20.6375 20.513 16.25 25.8755 16.25C31.238 16.25 35.6255 20.6375 35.6255 26C35.6255 31.3625 31.238 35.75 25.8755 35.75Z" fill="black"/>
</svg>
