<svg
  class="grass-svg"
  viewBox="0 0 1330 381"
  fill="none"
  xmlns="http://www.w3.org/2000/svg"
>
  <path
    d="M-1 0L54.2845 25.8642C109.569 50.7337 221.181 101.467 331.75 120.368C442.319 139.269 553.931 127.332 664.5 127.332C775.069 127.332 886.681 139.269 997.25 171.102C1107.82 202.935 1219.43 253.668 1274.72 279.533L1330 304.402V381H1274.72C1219.43 381 1107.82 381 997.25 381C886.681 381 775.069 381 664.5 381C553.931 381 442.319 381 331.75 381C221.181 381 109.569 381 54.2845 381H-1V0Z"
    fill="#1B5A19"
  />
  <path
    fill-rule="evenodd"
    clip-rule="evenodd"
    d="M-1 0L54.2845 25.8642C109.569 50.7337 221.181 101.467 331.75 120.368C442.319 139.269 553.931 127.332 664.5 127.332C775.069 127.332 886.681 139.269 997.25 171.102C1107.82 202.935 1219.43 253.668 1274.72 279.533L1330 304.402V381H1274.72C1219.43 381 1107.82 381 997.25 381C886.681 381 775.069 381 664.5 381C553.931 381 442.319 381 331.75 381C221.181 381 109.569 381 54.2845 381H-1V0Z"
    fill="url(#paint0_linear)"
  />
  <path
    fill-rule="evenodd"
    clip-rule="evenodd"
    d="M-1 0L54.2845 25.8642C109.569 50.7337 221.181 101.467 331.75 120.368C442.319 139.269 553.931 127.332 664.5 127.332C775.069 127.332 886.681 139.269 997.25 171.102C1107.82 202.935 1219.43 253.668 1274.72 279.533L1330 304.402V381H1274.72C1219.43 381 1107.82 381 997.25 381C886.681 381 775.069 381 664.5 381C553.931 381 442.319 381 331.75 381C221.181 381 109.569 381 54.2845 381H-1V0Z"
  />
  <defs>
    <linearGradient
      id="paint0_linear"
      x1="701.009"
      y1="98"
      x2="634.157"
      y2="433.624"
      gradientUnits="userSpaceOnUse"
    >
      <stop stop-color="#00FF47" />
      <stop offset="1" stop-color="white" stop-opacity="0.11" />
    </linearGradient>
  </defs>
</svg>
