<svg width="262" height="342" viewBox="0 0 262 342" fill="none" xmlns="http://www.w3.org/2000/svg">
<path fill-rule="evenodd" clip-rule="evenodd" d="M16.7144 12.9058C13.0135 11.0706 8.07975 13.199 10.1379 18.0504C12.3425 23.2455 20.4935 23.3097 25.0969 23.2067C24.6362 23.1826 23.1525 18.4186 22.6446 17.6987C21.1466 15.5751 18.9896 14.036 16.7144 12.9058ZM59.3556 106.049C60.2893 106.847 59.4316 106.124 59.3556 106.049V106.049ZM13.1492 36.4034C10.9834 38.059 10.8801 40.982 12.6493 42.9605C14.7559 45.3159 18.6026 45.2301 21.474 45.0006C22.7728 44.8967 29.7082 44.3413 28.0643 43.2064C28.1908 43.2542 28.4549 43.3701 28.7375 43.5276C28.8896 44.0834 29.0493 44.6372 29.2157 45.1885C29.1749 45.2123 29.1402 45.2379 29.0966 45.2616C29.1438 45.241 29.1769 45.2186 29.2185 45.1976C30.8863 50.708 33.2604 55.9548 36.3689 60.8634C35.2059 60.4055 34.0013 60.0587 32.7795 59.9044C29.1613 59.4468 21.5499 62.2585 25.5971 67.076C29.4777 71.6942 35.5192 66.7396 39.9234 66.0563C44.1954 72.0184 48.9053 77.7322 53.8414 83.255C53.5389 83.3498 53.2735 83.5472 53.1213 83.8544C51.1411 82.8498 49.0777 81.4126 47.245 81.0235C44.6005 80.4629 39.1777 80.1229 37.179 82.4901C34.7206 85.4007 37.3558 87.7649 40.2603 88.3231C44.4718 89.1327 49.9849 87.075 54.0374 85.6847C54.5009 85.7667 55.007 85.6311 55.3093 85.2603C55.3988 85.231 55.4884 85.2021 55.5755 85.1741C60.5741 90.67 65.764 95.9845 70.9222 101.182C70.8673 101.18 70.8124 101.176 70.7552 101.173C69.4096 100.291 67.9663 99.5666 66.4019 99.1874C62.7829 98.3053 58.5249 98.301 55.5881 100.92C52.6627 103.527 51.6264 108.087 54.6529 111.015C60.7107 116.875 69.6361 103.513 72.6918 102.955C77.9338 108.182 83.4766 113.065 89.1065 117.85C88.4671 117.656 87.8114 117.513 87.1337 117.448C81.6131 116.92 68.655 123.688 75.4302 130.347C81.3343 136.15 88.1679 124.981 92.926 121.075C98.2312 125.535 103.565 129.964 108.75 134.566C105.922 133.815 103.189 133.705 100.158 134.621C97.0219 135.57 91.9608 137.938 93.9435 142.173C95.9602 146.479 102.038 144.52 105.203 143.152C106.93 142.407 110.391 139.89 113.43 138.83C121.703 146.64 128.869 155.243 134.294 165.377C137.68 171.704 140.25 178.464 142.059 185.412C143.214 189.847 145.489 197.295 145.034 203.067C147.205 191.514 143.279 177.638 139.051 167.311C135.162 157.814 129.344 149.478 122.528 141.974C124.238 136.83 138.634 129.41 130.028 124.631C125.458 122.104 120.777 126.297 119.778 130.738C119.092 133.79 120.137 137.624 121.247 140.586C119.103 138.299 116.874 136.085 114.577 133.944C111.403 130.986 108.153 128.114 104.872 125.278C110.279 120.198 115.396 105.676 108.146 103.302C97.4409 99.8045 102.596 119.612 103.342 123.325C103.554 123.337 103.72 123.273 103.841 123.136C103.781 123.476 103.711 123.839 103.627 124.206C97.3464 118.806 90.9732 113.512 84.81 107.983C85.3652 107.573 86.248 106.004 86.9418 105.17C88.5075 103.288 90.0056 101.322 91.1005 99.1211C92.8299 95.6424 94.4979 90.0937 89.9134 88.0475C84.9276 85.8181 82.5583 92.0939 82.5236 95.8377C82.4999 98.4269 83.205 100.887 83.5724 103.424C83.6871 104.216 83.245 107.784 84.3233 106.249C84.2725 106.815 84.2651 107.225 84.2904 107.515C83.1838 106.518 82.0859 105.509 80.9949 104.494C81.0454 104.365 81.0828 104.226 81.0913 104.063C81.1498 102.947 80.0267 102.517 79.2391 102.844C77.7995 101.476 76.3739 100.091 74.9738 98.6781C72.0063 95.6849 68.9957 92.6063 66.006 89.4621C66.6546 88.9048 66.3967 88.1332 67.0033 87.5416C67.6089 86.9513 68.8018 86.6249 69.5139 86.0766C71.3052 84.6968 72.7905 82.6866 73.8648 80.7082C75.6383 77.4393 77.9303 70.5819 72.7493 69.0239C67.409 67.4155 64.6984 74.0164 64.355 78.1434C64.2882 78.9429 64.8868 86.147 65.3451 88.7629C59.8131 82.9196 54.372 76.857 49.4425 70.6888C50.9372 70.675 55.1747 67.6127 56.0313 66.7771C58.1216 64.739 61.4443 60.2355 57.7798 57.8523C54.5214 55.7386 50.5052 58.8001 49.1118 61.7756C48.8828 62.2655 48.0752 66.8257 48.0122 68.8717C45.972 66.2561 44.0257 63.625 42.215 60.9855C41.0074 59.2306 39.879 57.4294 38.8231 55.5898C39.0773 55.4458 39.3164 55.1946 39.5423 54.8822C44.9766 53.9599 51.905 45.481 45.5219 42.5309C42.4828 41.1281 39.1869 44.0237 37.6982 46.3944C37.3932 46.8794 36.8992 49.3179 36.4971 51.2412C33.4596 45.1472 31.1384 38.6955 29.3718 32.0806C29.8448 31.9632 30.2455 31.6018 30.2983 30.9802C32.9367 29.4761 35.0201 28.2236 36.8619 25.3312C38.0062 23.5347 40.0668 19.4301 36.7047 18.4329C32.3295 17.1355 29.5812 23.8182 29.2233 27.1097C29.1816 27.4918 29.1831 28.603 29.1975 29.6214C29.0456 29.6007 28.8921 29.603 28.7415 29.6296C27.7366 25.5336 26.9345 21.3848 26.2966 17.2291C28.6847 16.4605 29.0976 3.91911 27.5076 2.13336C23.9536 -1.86515 21.4463 3.91089 21.636 6.96363C21.8602 10.5631 23.4912 13.8375 25.4335 16.7434C25.6418 17.0511 25.5824 17.0362 25.6364 16.6075C25.6662 16.8194 25.7371 16.9758 25.8423 17.089C25.742 18.9838 25.5467 20.9236 25.6405 22.6002C25.9094 27.4016 26.4687 32.231 27.2808 36.9706C27.4783 38.1233 27.7045 39.2666 27.9581 40.4C26.0387 38.7648 23.4509 37.3119 22.4382 36.8576C19.81 35.6796 15.7597 34.4077 13.1492 36.4034ZM145.342 203.083C145.22 204.758 144.918 206.291 144.354 207.555C144.777 206.116 145.101 204.62 145.342 203.083Z" fill="#8158DB"/>
<g opacity="1.0">
<path opacity="1.0" fill-rule="evenodd" clip-rule="evenodd" d="M88.7051 126.309C98.9837 125.776 111.695 131.776 112.792 142.949C113.589 151.067 113.342 159.161 114.575 167.267C115.56 173.745 117.645 179.964 120.489 185.865C123.223 191.54 128.894 196.37 130.37 202.432C131.31 206.295 130.783 211.728 129.487 215.506C127.91 220.1 128.748 219.737 131.89 223.592C138.046 231.146 143.59 238.892 147.51 247.913C153.157 260.908 156.859 276.097 154.764 290.322C154.497 292.128 154.181 298.61 151.694 299.063C148.916 299.57 150.215 295.862 150.363 294.665C151.308 287.024 152.148 280.345 151.008 272.584C146.608 242.642 125.128 222.914 111.142 197.502C110.373 196.191 108.75 193.071 107.621 191.012C105.839 187.762 104.048 181.577 101.636 179.167C97.0932 174.626 101.27 183.754 102.155 185.497C103.274 187.701 104.505 190.044 105.652 191.975C110.9 200.928 116.757 210.701 122.177 219.93C98.7371 225.27 82.2296 197.091 75.9395 178.565C70.757 163.302 64.5563 127.615 88.7051 126.309Z" fill="#00FF47"/>
<path opacity="1.0" fill-rule="evenodd" clip-rule="evenodd" d="M226.468 97.9648C209.286 99.3281 198.255 110.666 193.12 126.525C190.353 135.071 190.035 143.85 188.497 152.633C186.184 165.846 181.206 175.86 171.477 185.274C168.464 188.189 166.244 191.182 164.665 194.385C161.532 197.583 158.804 201.201 156.8 205.625C154.24 211.275 153.516 218.053 156.472 223.686C157.266 225.2 159.249 228.24 161.303 229.621C153.611 246.003 149.382 263.945 149.858 281.865C150.146 292.682 150.674 303.504 151.29 314.307C151.456 317.208 152.401 321.999 153.82 317.133C155.119 312.684 153.49 305.698 153.339 301.049C152.606 278.402 151.979 257.81 161.302 236.651C162.28 234.434 163.316 232.234 164.396 230.052C164.459 230.015 164.518 229.971 164.577 229.927C164.618 229.959 164.656 229.993 164.697 230.024C164.766 229.901 164.86 229.755 164.97 229.592C165.28 229.272 165.55 228.868 165.808 228.418C166.634 227.272 167.57 225.926 167.575 225.188C167.575 225.183 167.572 225.174 167.572 225.168C173.343 215.747 179.954 206.846 186.706 198.118C186.655 198.182 194.029 188.141 192.889 193.694C192.339 196.37 186.915 201.465 184.724 204.3C179.878 210.605 174.187 218.595 169.458 226.321C168.822 226.687 167.923 228.482 167.273 229.82C166.914 230.497 166.579 231.18 166.249 231.776C183.006 237.312 196.041 226.16 204.929 213.189C204.94 213.174 204.949 213.158 204.959 213.143C207.664 209.559 210.435 206 213.896 203.167C219.672 198.44 225.856 197.605 232.665 195.279C251.234 188.934 259.129 164.87 261.636 147.013C264.465 126.869 250.627 95.9784 226.468 97.9648Z" fill="#499429"/>
<path opacity="1.0" fill-rule="evenodd" clip-rule="evenodd" d="M192.527 41.5515C174.892 59.9057 166.372 85.3633 159.626 109.296C152.091 136.026 147.114 163.169 146.923 190.961C146.798 209.22 146.301 227.593 147.367 245.831C147.745 252.308 148.391 258.796 149.417 265.204C149.502 265.73 151.799 280.037 153.996 276.703C155.246 274.808 151.642 261.862 151.369 259.706C149.837 247.562 149.481 235.328 149.556 223.096C149.679 202.956 149.085 182.919 151.126 162.854C151.431 159.858 151.672 156.711 152.383 153.78C153.139 150.664 152.176 152.025 154.638 150.791C157.029 149.592 159.984 149.763 162.465 148.259C172.307 142.291 177.342 126.961 181.26 116.903C185.742 105.401 188.466 93.1351 190.642 81.0306C192.239 72.1372 193.382 63.2978 194.028 54.2898C194.232 51.4508 194.244 48.482 194.802 45.6905C194.952 44.9375 195.706 43.6054 195.679 42.9386C195.621 41.5273 194.769 40.6973 194.699 39.5114C193.961 40.1757 193.236 40.8563 192.527 41.5515Z" fill="#499429"/>
<path opacity="1.0" fill-rule="evenodd" clip-rule="evenodd" d="M96.3679 286.092C96.3679 316.445 120.974 341.052 151.328 341.052C181.681 341.052 206.287 316.445 206.287 286.092" fill="#499429"/>
<path opacity="1.0" fill-rule="evenodd" clip-rule="evenodd" d="M155.737 286.267H152.833C153.035 282.623 153.301 278.986 153.91 275.383C156.24 261.603 163.524 241.365 179.5 239.128C180.09 239.045 182.258 239.031 184.884 239.185C186.129 238.489 187.523 238.069 188.992 237.972C202.594 236.969 217.785 247.943 224.346 259.362C229.635 268.57 228.744 280.66 225.477 290.442C223.289 296.991 218.515 306.328 210.552 306.419C200.59 306.533 200.11 294.22 199.917 287.022C199.661 277.453 198.452 269.117 190.912 262.594C189.154 261.075 187.233 259.738 185.458 258.239C182.679 255.894 179.607 253.492 179.249 249.612C178.754 244.259 181.776 243.296 186.39 244.29C187.176 244.46 195.099 248.015 193.926 245.205C193.568 244.346 192.26 243.666 190.609 243.156C186.337 242.692 181.242 242.153 179.777 242.475C163.97 245.943 157.815 267.838 156.181 281.75C156.004 283.252 155.862 284.758 155.737 286.267Z" fill="#00FF47"/>
</g>
</svg>
