<svg width="213" height="326" viewBox="0 0 213 326" fill="none" xmlns="http://www.w3.org/2000/svg">
<g filter="url(#filter0_f)">
<path d="M165.948 315.665C165.948 321.309 135.807 320.997 91.3622 320.997C46.9177 320.997 5 321.309 5 315.665C5 310.021 35.9262 309 80.3707 309C171.051 309 165.948 310.021 165.948 315.665Z" fill="url(#paint0_linear)"/>
</g>
<path fill-rule="evenodd" clip-rule="evenodd" d="M103.715 56.7533C100.051 53.3067 97.3409 48.8311 97.1326 43.4163C96.5323 27.8146 117.877 28.2482 122.795 35.4702C127.713 42.6922 129.35 62.5433 124.225 64.6828C122.181 65.536 117.554 64.8078 112.691 62.6342L117.782 82.9925L100.879 85.3818L103.715 56.7533Z" fill="#915B3C"/>
<path fill-rule="evenodd" clip-rule="evenodd" d="M112.022 27.3495C109.787 27.2749 103.853 27.8204 102.764 27.9683C102.068 28.0628 101.332 28.3298 100.846 27.7242C100.448 27.2283 100.47 26.2953 100.299 25.6803C100.101 24.9659 99.8546 24.2676 99.6066 23.5714C98.9007 21.5902 97.9611 19.7418 96.7459 18.0515C94.4658 14.8804 91.3856 12.5722 87.7001 11.4859C83.6303 10.2866 79.1983 10.487 75.066 11.4031C70.644 12.3833 66.7729 14.457 62.7181 16.4644C58.854 18.3773 54.7074 19.4866 50.4326 19.3887C46.1257 19.2902 42.6638 17.3497 38.8435 15.5806C34.9325 13.7693 30.5884 12.8271 26.3068 13.7603C22.3101 14.6315 18.785 16.8596 15.7064 19.6147C12.826 22.1924 10.5399 25.1337 9.49219 28.9789C8.36502 33.1152 8.84547 37.4223 11.8023 40.5413C16.0882 45.0623 23.1515 45.4233 28.8932 44.5129C32.2143 43.9865 35.4142 42.9136 38.4303 41.3425C42.4526 39.2473 45.7874 36.1687 49.4758 33.5375C51.2067 32.3028 53.0192 31.2357 54.9485 30.3823C56.8206 29.554 58.6976 29.0359 60.5842 30.0082C62.5799 31.0367 64.3806 32.0688 66.59 32.5824C68.7095 33.0751 70.9118 33.2127 73.077 32.9013C77.2896 32.2953 81.2948 30.3713 85.2886 28.9047C88.5454 27.7088 92.0362 26.4837 95.5201 26.7355C96.9739 26.8407 99.1174 27.1742 99.8004 28.6328C91.3446 31.4251 89.1823 42.9412 92.5196 50.7268C94.3207 54.9289 102.789 58.9778 105.604 56.2581C107.387 54.5351 105.993 52.78 105.088 51.6194C103.355 49.3967 102.508 46.3543 105.029 44.3009C107.204 42.5298 110.045 45.6492 110.091 45.6391C110.727 45.4995 115.915 41.4978 119.211 36.2384C123.009 35.958 123.295 33.306 122.16 31.3228C121.025 29.3397 115.109 27.453 112.022 27.3495Z" fill="#191847"/>
<path fill-rule="evenodd" clip-rule="evenodd" d="M107.097 145.333L132.601 237.887L144.597 307.377H156.637L144.618 145.333H107.097Z" fill="#784931"/>
<path fill-rule="evenodd" clip-rule="evenodd" d="M95.6351 145.333C97.4147 193.414 96.7128 219.639 96.3145 224.007C95.9162 228.376 93.6551 257.632 78.247 308.844H90.7699C111.175 259.715 118.299 230.458 120.639 224.007C122.979 217.556 129.892 191.331 139.983 145.333H95.6351Z" fill="#915B3C"/>
<path fill-rule="evenodd" clip-rule="evenodd" d="M106.549 145.333C113.183 177.181 124.657 228.018 140.971 297.845H158.582C159.882 226.175 154.349 179.004 144.767 145.333H106.549Z" fill="#69A1AC"/>
<path fill-rule="evenodd" clip-rule="evenodd" d="M95.5462 145.333C97.289 193.414 92.7723 240.783 78.7809 298.594H97.5701C118.013 250.198 132.665 203.063 142.679 145.333H95.5462Z" fill="#C5CFD6"/>
<path fill-rule="evenodd" clip-rule="evenodd" d="M76.4621 318.376L77.153 306.644C81.1986 307.89 86.2657 307.401 92.3544 305.177C98.9012 310.061 107.143 313.396 117.079 315.182C117.837 315.318 118.347 316.076 118.218 316.874C118.209 316.926 118.198 316.977 118.185 317.027L117.229 320.575H92.3544H77.844L76.4621 318.376Z" fill="#191847"/>
<path fill-rule="evenodd" clip-rule="evenodd" d="M141.909 318.376L142.6 306.644C146.646 307.89 151.713 307.401 157.802 305.177C164.348 310.061 172.59 313.396 182.526 315.182C183.285 315.318 183.794 316.076 183.665 316.874C183.656 316.926 183.645 316.977 183.632 317.027L182.677 320.575H157.802H143.291L141.909 318.376Z" fill="#191847"/>
<path fill-rule="evenodd" clip-rule="evenodd" d="M165.062 128.991L189.694 141.36C195.918 141.866 201.226 142.964 205.619 144.657C206.705 145.36 208.134 146.934 204.169 147.379C200.203 147.825 196.047 148.477 195.727 149.956C195.408 151.436 198.041 152.623 197.247 154.689C196.717 156.066 192.779 153.629 185.433 147.376L162.189 142.286L165.062 128.991ZM80.8115 145.835L95.2121 143.117C91.0661 174.362 88.7841 190.956 88.3659 192.899C87.4249 197.272 91.7908 202.813 93.767 205.862C89.4175 208.932 88.6319 200.823 83.1626 204.804C78.1705 208.437 74.8101 213.923 67.9251 211.16C67.0786 210.82 65.942 209.145 67.7453 207.317C72.2382 202.763 78.5352 195.095 79.1911 192.844C80.0855 189.774 80.6256 174.105 80.8115 145.835Z" fill="#915B3C"/>
<path fill-rule="evenodd" clip-rule="evenodd" d="M110.818 74.7147L116.649 72.4955C142.091 88.0116 157.342 124.313 187.867 139.209L182.644 148.866C134.332 151.969 115.149 107.802 110.818 74.7147Z" fill="#1F28CF"/>
<path fill-rule="evenodd" clip-rule="evenodd" d="M97.4288 157.253C121.507 152.592 139.218 149.163 150.563 146.967C152.991 146.497 151.954 142.965 151.31 141.206C143.885 120.906 124.435 101.239 119.63 71.2261L103.907 71.7113C94.6 95.2196 94.3653 121.99 97.4288 157.253Z" fill="#DDE3E9"/>
<path fill-rule="evenodd" clip-rule="evenodd" d="M88.4304 95.9623C86.0937 95.7322 84.08 94.531 82.3893 92.3587C75.1013 82.9945 76.2068 76.8491 81.9032 73.7978C87.5996 70.7464 93.5739 73.6073 103.132 71.7588C103.652 71.6583 104.134 71.5998 104.577 71.5835L109.431 70.9367C130.954 116.501 139.914 147.945 136.312 165.268L94.4023 173.373C92.8762 179.826 91.3053 185.311 89.6895 189.828L78.2698 192.036C71.4512 156.395 74.8381 124.37 88.4304 95.9623Z" fill="#2B44FF"/>
<path fill-rule="evenodd" clip-rule="evenodd" d="M99.8824 146.963C103.019 158.077 106.479 165.914 110.264 170.474L94.7323 173.48C96.5099 165.957 98.2266 157.118 99.8824 146.963L99.8824 146.963Z" fill="black" fill-opacity="0.1"/>
<defs>
<filter id="filter0_f" x="0" y="304" width="171" height="22" filterUnits="userSpaceOnUse" color-interpolation-filters="sRGB">
<feFlood flood-opacity="0" result="BackgroundImageFix"/>
<feBlend mode="normal" in="SourceGraphic" in2="BackgroundImageFix" result="shape"/>
<feGaussianBlur stdDeviation="2.5" result="effect1_foregroundBlur"/>
</filter>
<linearGradient id="paint0_linear" x1="119.626" y1="325.885" x2="30.5161" y2="325.885" gradientUnits="userSpaceOnUse">
<stop stop-color="#414141"/>
<stop offset="1" stop-color="#414141" stop-opacity="0.33"/>
</linearGradient>
</defs>
</svg>
