<svg viewBox="0 0 75 75" fill="none" xmlns="http://www.w3.org/2000/svg">
<path d="M37.5 68.75C53.0312 68.75 65.625 56.1562 65.625 40.625C50.0938 40.625 37.5 53.2188 37.5 68.75ZM17.5 32.0312C17.5 36.3438 21 39.8438 25.3125 39.8438C26.9688 39.8438 28.4688 39.3438 29.75 38.4688L29.6875 39.0625C29.6875 43.375 33.1875 46.875 37.5 46.875C41.8125 46.875 45.3125 43.375 45.3125 39.0625L45.25 38.4688C46.5 39.3438 48.0312 39.8438 49.6875 39.8438C54 39.8438 57.5 36.3438 57.5 32.0312C57.5 28.9062 55.6562 26.25 53.0312 25C55.6562 23.75 57.5 21.0938 57.5 17.9688C57.5 13.6562 54 10.1562 49.6875 10.1562C48.0312 10.1562 46.5312 10.6562 45.25 11.5312L45.3125 10.9375C45.3125 6.625 41.8125 3.125 37.5 3.125C33.1875 3.125 29.6875 6.625 29.6875 10.9375L29.75 11.5312C28.5 10.6562 26.9688 10.1562 25.3125 10.1562C21 10.1562 17.5 13.6562 17.5 17.9688C17.5 21.0938 19.3438 23.75 21.9688 25C19.3438 26.25 17.5 28.9062 17.5 32.0312ZM37.5 17.1875C41.8125 17.1875 45.3125 20.6875 45.3125 25C45.3125 29.3125 41.8125 32.8125 37.5 32.8125C33.1875 32.8125 29.6875 29.3125 29.6875 25C29.6875 20.6875 33.1875 17.1875 37.5 17.1875ZM9.375 40.625C9.375 56.1562 21.9688 68.75 37.5 68.75C37.5 53.2188 24.9062 40.625 9.375 40.625Z" fill="#499429"/>
</svg>
