<svg width="43" height="43" viewBox="0 0 43 43" fill="none" xmlns="http://www.w3.org/2000/svg">
<path d="M9.17083 18.7271C12.4708 25.2125 17.7875 30.5062 24.2729 33.8292L29.3146 28.7875C29.9333 28.1688 30.85 27.9625 31.6521 28.2375C34.2188 29.0854 36.9917 29.5438 39.8333 29.5438C41.0938 29.5438 42.125 30.575 42.125 31.8354V39.8333C42.125 41.0938 41.0938 42.125 39.8333 42.125C18.3146 42.125 0.875 24.6854 0.875 3.16667C0.875 1.90625 1.90625 0.875 3.16667 0.875H11.1875C12.4479 0.875 13.4792 1.90625 13.4792 3.16667C13.4792 6.03125 13.9375 8.78125 14.7854 11.3479C15.0375 12.15 14.8542 13.0438 14.2125 13.6854L9.17083 18.7271Z" fill="#FDA500"/>
</svg>
