<svg viewBox="0 0 2308 381" fill="none" xmlns="http://www.w3.org/2000/svg" preserveAspectRatio="none">
<path fill-rule="evenodd" clip-rule="evenodd" d="M0 0.00012207L95.8652 25.8644C191.73 50.7338 385.27 101.467 577 120.368C768.73 139.269 962.27 127.332 1154 127.332C1345.73 127.332 1539.27 139.269 1731 171.102C1922.73 202.935 2116.27 253.669 2212.13 279.533L2308 304.402V381H2212.13C2116.27 381 1922.73 381 1731 381C1539.27 381 1345.73 381 1154 381C962.27 381 768.73 381 577 381C385.27 381 191.73 381 95.8652 381H0V0.00012207Z" fill="#1B5A19"/>
<path fill-rule="evenodd" clip-rule="evenodd" d="M0 0.00012207L95.8652 25.8644C191.73 50.7338 385.27 101.467 577 120.368C768.73 139.269 962.27 127.332 1154 127.332C1345.73 127.332 1539.27 139.269 1731 171.102C1922.73 202.935 2116.27 253.669 2212.13 279.533L2308 304.402V381H2212.13C2116.27 381 1922.73 381 1731 381C1539.27 381 1345.73 381 1154 381C962.27 381 768.73 381 577 381C385.27 381 191.73 381 95.8652 381H0V0.00012207Z" fill="url(#paint0_linear)"/>
<path fill-rule="evenodd" clip-rule="evenodd" d="M0 0.00012207L95.8652 25.8644C191.73 50.7338 385.27 101.467 577 120.368C768.73 139.269 962.27 127.332 1154 127.332C1345.73 127.332 1539.27 139.269 1731 171.102C1922.73 202.935 2116.27 253.669 2212.13 279.533L2308 304.402V381H2212.13C2116.27 381 1922.73 381 1731 381C1539.27 381 1345.73 381 1154 381C962.27 381 768.73 381 577 381C385.27 381 191.73 381 95.8652 381H0V0.00012207Z"/>
<defs>
<linearGradient id="paint0_linear" x1="1217.31" y1="98.0001" x2="1177.75" y2="442.396" gradientUnits="userSpaceOnUse">
<stop stop-color="#00FF47"/>
<stop offset="1" stop-color="white" stop-opacity="0.11"/>
</linearGradient>
</defs>
</svg>
